<?xml version="1.0" encoding="utf-8"?>
<!-- Generator: Adobe Illustrator 15.0.0, SVG Export Plug-In . SVG Version: 6.00 Build 0)  -->
<!DOCTYPE svg PUBLIC "-//W3C//DTD SVG 1.1//EN" "http://www.w3.org/Graphics/SVG/1.1/DTD/svg11.dtd">
<svg version="1.1" id="Layer_1" xmlns="http://www.w3.org/2000/svg" xmlns:xlink="http://www.w3.org/1999/xlink" x="0px" y="0px"
	 width="127px" height="63px" viewBox="0 0 127 63" enable-background="new 0 0 127 63" xml:space="preserve">
<g>
	<path fill="#646363" d="M0.474,63C0.211,63,0,62.788,0,62.529V0.466C0,0.209,0.211,0,0.474,0c0.258,0,0.47,0.209,0.47,0.466v62.063
		C0.943,62.788,0.731,63,0.474,63z"/>
	<g>
		<g>
			<path fill="#646363" d="M21.105,32.175l0.366,2.36h0.089l0.38-2.383l2.618-8.165h2.799L22.304,38.03h-1.926l-5.1-14.043h3.107
				L21.105,32.175z"/>
			<path fill="#646363" d="M28.642,23.987h2.66v13.939h-2.66V23.987z"/>
			<path fill="#646363" d="M39.822,34.193c0-0.436-0.158-0.782-0.473-1.045c-0.292-0.271-0.683-0.5-1.142-0.73
				c-0.473-0.212-0.967-0.438-1.509-0.675c-0.535-0.231-1.05-0.518-1.492-0.852c-0.474-0.341-0.86-0.762-1.147-1.265
				c-0.311-0.505-0.473-1.14-0.473-1.927c0-0.674,0.11-1.259,0.336-1.763c0.225-0.505,0.536-0.918,0.942-1.25
				c0.409-0.336,0.891-0.571,1.453-0.742c0.551-0.151,1.187-0.229,1.872-0.229c0.794,0,1.535,0.058,2.246,0.208
				c0.705,0.141,1.275,0.343,1.725,0.603l-0.825,2.296c-0.278-0.197-0.704-0.357-1.286-0.513c-0.588-0.156-1.189-0.229-1.859-0.229
				c-0.626,0-1.102,0.124-1.422,0.368c-0.356,0.271-0.511,0.602-0.511,1.02c0,0.403,0.154,0.732,0.455,1.002
				c0.312,0.259,0.689,0.517,1.163,0.727c0.468,0.24,0.954,0.465,1.484,0.707c0.544,0.24,1.053,0.521,1.505,0.87
				c0.471,0.326,0.847,0.749,1.154,1.251c0.309,0.487,0.464,1.122,0.464,1.856c0,0.752-0.128,1.382-0.359,1.919
				c-0.239,0.545-0.587,0.988-1.013,1.348c-0.444,0.359-0.977,0.623-1.574,0.799c-0.641,0.171-1.297,0.254-2.051,0.254
				c-0.971,0-1.837-0.087-2.575-0.275c-0.729-0.182-1.274-0.373-1.643-0.556l0.861-2.331c0.153,0.077,0.329,0.17,0.557,0.257
				c0.227,0.099,0.488,0.181,0.783,0.265c0.271,0.079,0.586,0.137,0.912,0.198c0.295,0.051,0.637,0.079,0.957,0.079
				c0.796,0,1.407-0.141,1.836-0.409C39.605,35.151,39.822,34.742,39.822,34.193z"/>
			<path fill="#646363" d="M44.522,23.987h2.687v13.939h-2.687V23.987z"/>
			<path fill="#646363" d="M49.388,30.957c0-2.311,0.49-4.108,1.507-5.361c0.994-1.258,2.436-1.879,4.274-1.879
				c0.988,0,1.833,0.159,2.547,0.519c0.742,0.345,1.344,0.833,1.827,1.465c0.475,0.636,0.842,1.404,1.073,2.297
				c0.229,0.886,0.362,1.879,0.362,2.96c0,2.324-0.513,4.108-1.529,5.365c-0.991,1.264-2.425,1.88-4.28,1.88
				c-0.984,0-1.828-0.169-2.572-0.518c-0.724-0.34-1.328-0.838-1.798-1.47c-0.478-0.646-0.827-1.399-1.068-2.283
				C49.501,33.035,49.388,32.043,49.388,30.957z M52.184,30.957c0,0.7,0.079,1.359,0.192,1.945c0.11,0.596,0.282,1.096,0.538,1.517
				c0.233,0.421,0.533,0.757,0.926,1.003c0.376,0.238,0.823,0.345,1.329,0.345c0.973,0,1.687-0.371,2.207-1.12
				c0.529-0.764,0.788-1.993,0.788-3.689c0-0.673-0.056-1.307-0.152-1.896c-0.125-0.573-0.307-1.082-0.53-1.522
				c-0.235-0.434-0.541-0.779-0.927-1.024c-0.372-0.253-0.829-0.375-1.386-0.375c-0.934,0-1.682,0.398-2.201,1.17
				C52.451,28.083,52.184,29.3,52.184,30.957z"/>
			<path fill="#646363" d="M66.276,30.664l-1.078-2.192h-0.098l0.311,2.192v7.263h-2.536V23.894h1.967l5.153,7.428l1.03,2.129h0.111
				l-0.332-2.129v-7.334h2.536V38.03h-1.934L66.276,30.664z"/>
		</g>
		<g>
			<path fill="#646363" d="M16.611,48.023c0.55-0.108,1.164-0.197,1.813-0.248c0.654-0.059,1.308-0.095,1.953-0.095
				c0.69,0,1.353,0.05,2.055,0.169c0.682,0.113,1.299,0.342,1.834,0.671c0.541,0.346,1.002,0.823,1.339,1.417
				c0.344,0.605,0.505,1.404,0.505,2.364c0,0.869-0.136,1.612-0.437,2.219c-0.295,0.607-0.698,1.1-1.199,1.485
				c-0.492,0.387-1.048,0.659-1.688,0.833c-0.632,0.173-1.281,0.259-1.958,0.259c-0.057,0-0.161,0-0.309,0
				c-0.143,0-0.285,0-0.441-0.013c-0.158-0.009-0.321-0.009-0.467-0.025c-0.158-0.017-0.251-0.033-0.312-0.04v4.792h-2.689V48.023z
				 M20.598,50.029c-0.249,0-0.495,0.014-0.743,0.033c-0.226,0.02-0.409,0.038-0.554,0.07v4.516
				c0.047,0.017,0.123,0.031,0.229,0.044c0.1,0,0.218,0.021,0.325,0.03c0.119,0.005,0.248,0.005,0.336,0.005
				c0.112,0,0.188,0,0.254,0c0.353,0,0.703-0.035,1.05-0.094c0.335-0.065,0.646-0.195,0.916-0.382
				c0.285-0.167,0.488-0.418,0.653-0.742c0.17-0.312,0.247-0.733,0.247-1.253c0-0.439-0.077-0.797-0.231-1.08
				c-0.159-0.288-0.358-0.518-0.625-0.687c-0.247-0.179-0.54-0.295-0.857-0.357C21.265,50.071,20.926,50.029,20.598,50.029z"/>
			<path fill="#646363" d="M27.781,48.023c0.302-0.061,0.617-0.108,0.974-0.154c0.325-0.045,0.673-0.09,1.015-0.101
				c0.342-0.038,0.687-0.052,1.02-0.064c0.307-0.015,0.625-0.023,0.879-0.023c0.646,0,1.271,0.062,1.891,0.182
				c0.623,0.115,1.175,0.326,1.663,0.618c0.497,0.282,0.871,0.695,1.16,1.198c0.295,0.512,0.444,1.162,0.444,1.931
				c0,1.136-0.277,2.069-0.781,2.785c-0.514,0.717-1.212,1.214-2.087,1.479l0.953,0.621l3.13,5.316h-3.089l-3.09-5.444l-1.406-0.267
				v5.711h-2.675V48.023z M31.866,50.11c-0.258,0-0.541,0.006-0.809,0.022c-0.259,0.011-0.46,0.045-0.602,0.073v4.046h1.132
				c0.726,0,1.318-0.167,1.771-0.524c0.433-0.337,0.654-0.907,0.654-1.7c0-0.603-0.175-1.065-0.537-1.41
				C33.109,50.274,32.576,50.11,31.866,50.11z"/>
			<path fill="#646363" d="M38.446,54.854c0-2.327,0.492-4.11,1.506-5.369c0.991-1.254,2.409-1.888,4.278-1.888
				c0.978,0,1.838,0.178,2.559,0.517c0.73,0.354,1.336,0.848,1.812,1.478c0.495,0.639,0.844,1.395,1.074,2.294
				c0.226,0.891,0.348,1.876,0.348,2.969c0,2.321-0.499,4.102-1.507,5.355c-0.996,1.262-2.432,1.882-4.285,1.882
				c-0.985,0-1.835-0.167-2.571-0.512c-0.744-0.346-1.327-0.844-1.812-1.47c-0.471-0.639-0.818-1.398-1.05-2.287
				C38.559,56.923,38.446,55.933,38.446,54.854z M41.25,54.854c0,0.706,0.066,1.343,0.174,1.938
				c0.117,0.582,0.297,1.093,0.542,1.516c0.242,0.434,0.555,0.758,0.923,0.995c0.381,0.24,0.83,0.358,1.342,0.358
				c0.946,0,1.684-0.368,2.199-1.135c0.529-0.747,0.783-1.983,0.783-3.672c0-0.685-0.052-1.316-0.162-1.891
				c-0.092-0.591-0.285-1.105-0.51-1.539c-0.231-0.438-0.547-0.79-0.921-1.026c-0.383-0.255-0.835-0.369-1.39-0.369
				c-0.938,0-1.679,0.398-2.199,1.167C41.52,51.972,41.25,53.198,41.25,54.854z"/>
			<path fill="#646363" d="M51.934,47.884c0.279-0.048,0.585-0.068,0.931-0.104c0.346-0.022,0.72-0.049,1.061-0.059
				c0.371-0.013,0.722-0.025,1.072-0.031c0.339,0,0.648-0.009,0.932-0.009c1.202,0,2.235,0.177,3.082,0.523
				c0.869,0.345,1.553,0.833,2.087,1.446c0.536,0.624,0.948,1.377,1.185,2.235c0.23,0.859,0.361,1.808,0.361,2.842
				c0,0.945-0.131,1.856-0.361,2.727c-0.224,0.881-0.614,1.662-1.157,2.332c-0.545,0.679-1.259,1.215-2.156,1.633
				c-0.885,0.406-1.991,0.613-3.292,0.613c-0.227,0-0.486,0-0.845-0.012c-0.339-0.016-0.711-0.041-1.075-0.054
				c-0.369-0.024-0.725-0.039-1.061-0.061c-0.32-0.016-0.598-0.047-0.763-0.081V47.884z M56.142,50.11
				c-0.306,0-0.575,0.006-0.882,0.022c-0.3,0.011-0.518,0.032-0.654,0.058v9.335c0.058,0.006,0.137,0.026,0.273,0.034
				c0.118,0.005,0.259,0.018,0.396,0.024c0.137,0.002,0.292,0.002,0.405,0.008c0.127,0.011,0.226,0.019,0.306,0.019
				c0.748,0,1.359-0.139,1.872-0.41c0.509-0.274,0.903-0.635,1.182-1.094c0.292-0.443,0.504-0.963,0.633-1.563
				c0.106-0.584,0.173-1.187,0.173-1.815c0-0.543-0.066-1.086-0.16-1.641c-0.115-0.555-0.311-1.039-0.569-1.478
				c-0.283-0.446-0.674-0.802-1.144-1.086C57.486,50.255,56.855,50.11,56.142,50.11z"/>
			<path fill="#646363" d="M71.962,47.884h2.535v8.996c0,0.905-0.106,1.686-0.34,2.33c-0.237,0.652-0.571,1.178-0.985,1.606
				c-0.421,0.431-0.908,0.744-1.519,0.938c-0.59,0.192-1.243,0.3-1.955,0.3c-3.473,0-5.199-1.603-5.199-4.841v-9.33h2.669v8.803
				c0,0.541,0.055,0.999,0.143,1.38c0.102,0.382,0.247,0.681,0.464,0.907c0.202,0.236,0.475,0.399,0.769,0.501
				c0.315,0.109,0.687,0.152,1.103,0.152c0.823,0,1.418-0.224,1.771-0.701c0.361-0.458,0.545-1.208,0.545-2.239V47.884z"/>
			<path fill="#646363" d="M85.211,61.247c-0.424,0.303-0.956,0.515-1.602,0.653c-0.643,0.132-1.288,0.191-1.977,0.191
				c-0.823,0-1.6-0.125-2.339-0.38c-0.732-0.266-1.366-0.685-1.929-1.26c-0.564-0.577-1.018-1.327-1.341-2.244
				c-0.34-0.92-0.496-2.049-0.496-3.354c0-1.366,0.181-2.52,0.547-3.442c0.386-0.917,0.87-1.667,1.449-2.229
				c0.589-0.56,1.259-0.965,1.991-1.22c0.713-0.232,1.443-0.365,2.173-0.365c0.78,0,1.438,0.061,1.979,0.171
				c0.531,0.101,0.992,0.229,1.336,0.373l-0.52,2.3c-0.308-0.14-0.661-0.246-1.064-0.309c-0.41-0.062-0.908-0.104-1.499-0.104
				c-1.072,0-1.952,0.398-2.594,1.186c-0.652,0.771-0.997,1.99-0.997,3.64c0,0.719,0.085,1.379,0.232,1.973
				c0.163,0.583,0.422,1.092,0.728,1.508c0.306,0.412,0.713,0.748,1.19,0.978c0.468,0.239,1.02,0.349,1.639,0.349
				c0.588,0,1.078-0.051,1.491-0.174c0.392-0.114,0.755-0.273,1.05-0.463L85.211,61.247z"/>
			<path fill="#646363" d="M96.521,50.312h-3.974v11.5h-2.674v-11.5h-4.009v-2.428h10.656V50.312z"/>
			<path fill="#646363" d="M98.174,47.884h2.665v13.928h-2.665V47.884z"/>
			<path fill="#646363" d="M103.044,54.854c0-2.327,0.486-4.11,1.496-5.369c0.993-1.254,2.422-1.888,4.283-1.888
				c0.967,0,1.832,0.178,2.553,0.517c0.727,0.354,1.337,0.848,1.827,1.478c0.48,0.639,0.836,1.395,1.071,2.294
				c0.22,0.891,0.345,1.876,0.345,2.969c0,2.321-0.494,4.102-1.523,5.355c-0.993,1.262-2.432,1.882-4.272,1.882
				c-0.987,0-1.836-0.167-2.577-0.512c-0.713-0.346-1.322-0.844-1.793-1.47c-0.475-0.639-0.84-1.398-1.064-2.287
				C103.163,56.923,103.044,55.933,103.044,54.854z M105.843,54.854c0,0.706,0.053,1.343,0.174,1.938
				c0.119,0.582,0.297,1.093,0.542,1.516c0.238,0.434,0.551,0.758,0.921,0.995c0.371,0.24,0.823,0.358,1.344,0.358
				c0.957,0,1.678-0.368,2.209-1.135c0.526-0.747,0.785-1.983,0.785-3.672c0-0.685-0.058-1.316-0.163-1.891
				c-0.129-0.591-0.285-1.105-0.528-1.539c-0.229-0.438-0.536-0.79-0.918-1.026c-0.371-0.255-0.846-0.369-1.385-0.369
				c-0.941,0-1.683,0.398-2.201,1.167C106.105,51.972,105.843,53.198,105.843,54.854z"/>
			<path fill="#646363" d="M119.937,54.552l-1.083-2.191h-0.099l0.312,2.191v7.26h-2.538V47.779h1.953l5.156,7.424l1.05,2.136h0.086
				l-0.298-2.136v-7.319H127v14.027h-1.943L119.937,54.552z"/>
		</g>
		<g>
			<path fill="#646363" d="M20.019,6.778l-1.088-2.2H18.85l0.31,2.2v7.252h-2.548V0h1.958l5.178,7.432l1.037,2.114h0.079
				l-0.305-2.114V0.105H27.1v14.035h-1.959L20.019,6.778z"/>
			<path fill="#646363" d="M29.439,0.105h8.091v2.431h-5.419v9.075h5.513v2.419h-8.185V0.105z"/>
			<path fill="#646363" d="M43.159,7.883l0.266,2.471h0.072l0.271-2.503l2.379-7.745h1.761l2.329,7.777l0.278,2.471h0.077
				l0.303-2.503l1.684-7.745h2.682l-3.759,14.035h-1.798l-2.438-7.756l-0.337-2.121h-0.103l-0.327,2.154l-2.42,7.723h-1.888
				L38.446,0.105h2.903L43.159,7.883z"/>
			<path fill="#646363" d="M36.869,6.961c0,0.952-0.768,1.729-1.698,1.729c-0.938,0-1.695-0.777-1.695-1.729
				c0-0.958,0.758-1.729,1.695-1.729C36.102,5.231,36.869,6.003,36.869,6.961z"/>
		</g>
	</g>
</g>
</svg>
