<?xml version="1.0" encoding="utf-8"?>
<!-- Generator: Adobe Illustrator 15.0.0, SVG Export Plug-In . SVG Version: 6.00 Build 0)  -->
<!DOCTYPE svg PUBLIC "-//W3C//DTD SVG 1.1//EN" "http://www.w3.org/Graphics/SVG/1.1/DTD/svg11.dtd">
<svg version="1.1" id="Layer_1" xmlns="http://www.w3.org/2000/svg" xmlns:xlink="http://www.w3.org/1999/xlink" x="0px" y="0px"
	 width="50px" height="40px" viewBox="0 0 50 40" enable-background="new 0 0 50 40" xml:space="preserve">
<g>
	<polygon fill="none" points="1.021,30.147 43.98,30.147 48.968,24.996 6.086,24.996 	"/>
	<polygon fill="none" points="1.026,15.144 43.88,15.144 48.972,9.862 6.156,9.862 	"/>
	<path fill="#FEEB17" d="M50,9.862V0.01H0.003v9.853h5.135l-5.131,5.281H0.003v0.004L0,15.151l0.003,0.003v9.843h5.066l-5.063,5.148
		l0.002,0.002H0.003V40H50v-9.853h-4.996l4.99-5.15H50v-9.854h-5.094l5.09-5.281H50z M43.98,30.147H1.021l5.065-5.15h42.882
		L43.98,30.147z M43.88,15.144H1.026l5.13-5.281h42.815L43.88,15.144z"/>
</g>
<g>
	<path fill="#1E1E1C" d="M12.664,2.607v5.363h-0.961V3.937l-1.639,2.035L8.424,3.93v4.041H7.463V2.607h1.11l1.491,1.918l1.491-1.918
		H12.664z"/>
	<path fill="#1E1E1C" d="M16.224,2.607h0.962v5.363h-0.962V2.607z"/>
	<path fill="#1E1E1C" d="M21.714,2.607v4.426h1.93v0.938h-2.898V2.607H21.714z"/>
	<path fill="#1E1E1C" d="M27.798,2.607v4.426h1.93v0.938h-2.898V2.607H27.798z"/>
	<path fill="#1E1E1C" d="M35.941,2.607V3.53h-2.069v1.244h1.998v0.922h-1.998v1.351h2.138V7.97h-3.1V2.607H35.941z"/>
	<path fill="#1E1E1C" d="M41.127,2.6c1.091,0,1.616,0.69,1.616,1.629c0,0.784-0.373,1.393-1.137,1.571l1.37,2.17h-1.126
		l-1.326-2.111h-0.367v2.111h-0.954V2.6H41.127z M41.085,4.893c0.472,0,0.694-0.299,0.694-0.663c0-0.372-0.302-0.663-0.688-0.663
		h-0.928v1.326H41.085z"/>
	<path fill="#1E1E1C" d="M10.055,17.476c0.794,0,1.433,0.659,1.433,1.473c0,0.43-0.171,0.815-0.456,1.08
		c0.403,0.27,0.665,0.739,0.665,1.276c0,0.851-0.667,1.534-1.489,1.534H7.854v-5.363H10.055z M9.794,19.624
		c0.381,0,0.682-0.216,0.682-0.594c0-0.385-0.302-0.593-0.682-0.593H8.845v1.188H9.794z M9.99,21.874
		c0.387,0,0.696-0.25,0.696-0.643c0-0.385-0.31-0.64-0.696-0.64H8.845v1.284L9.99,21.874L9.99,21.874z"/>
	<path fill="#1E1E1C" d="M16.81,17.469c1.091,0,1.616,0.69,1.616,1.629c0,0.784-0.373,1.393-1.136,1.571l1.371,2.169h-1.125
		l-1.328-2.111h-0.368v2.111h-0.954v-5.37H16.81z M16.768,19.762c0.472,0,0.697-0.299,0.697-0.664c0-0.371-0.303-0.662-0.69-0.662
		h-0.928v1.326H16.768z"/>
	<path fill="#1E1E1C" d="M24.74,17.476l2.026,5.363h-1.012l-0.469-1.235h-2.11l-0.469,1.235h-1.012l2.026-5.363H24.74z M24.233,18.7
		l-0.682,1.908h1.355L24.233,18.7z"/>
	<path fill="#1E1E1C" d="M31.062,17.476l2.365,3.798v-3.798h0.962v5.363h-1.11l-2.367-3.805v3.805h-0.959v-5.363H31.062z"/>
	<path fill="#1E1E1C" d="M39.902,17.476c1.464,0,2.676,1.21,2.676,2.682c0,1.472-1.214,2.681-2.676,2.681H37.95v-5.363H39.902z
		 M39.902,21.866c0.951,0,1.708-0.79,1.708-1.708s-0.757-1.707-1.708-1.707h-0.991v3.416H39.902L39.902,21.866z"/>
	<path fill="#1E1E1C" d="M5.474,35.261c-0.531-0.193-1.189-0.561-1.189-1.389c0-1,0.727-1.617,1.564-1.596
		C6.307,32.291,6.8,32.484,7.22,32.92l-0.578,0.67c-0.292-0.271-0.571-0.378-0.793-0.362c-0.346,0.015-0.574,0.292-0.574,0.607
		c0,0.347,0.225,0.49,0.644,0.642l0.418,0.145c0.526,0.159,1.189,0.659,1.189,1.558c0,0.97-0.755,1.604-1.673,1.591
		c-0.562-0.013-1.18-0.263-1.723-0.821l0.578-0.706c0.415,0.438,0.818,0.597,1.144,0.59c0.44-0.002,0.74-0.312,0.74-0.653
		c0-0.419-0.351-0.64-0.704-0.762L5.474,35.261z"/>
	<path fill="#1E1E1C" d="M13.74,32.347v0.922h-2.067v1.242h1.996v0.922h-1.996v1.351h2.138v0.923h-3.1v-5.359H13.74L13.74,32.347z"
		/>
	<path fill="#1E1E1C" d="M18.926,32.338c1.091,0,1.616,0.69,1.616,1.631c0,0.782-0.373,1.393-1.136,1.569l1.371,2.17h-1.125
		l-1.328-2.11h-0.367v2.11h-0.955v-5.37H18.926z M18.884,34.631c0.472,0,0.697-0.299,0.697-0.662c0-0.371-0.303-0.664-0.689-0.664
		h-0.929v1.326H18.884z"/>
	<path fill="#1E1E1C" d="M27.978,32.347l-2.01,5.361h-1.036l-2.01-5.361h0.991l1.533,4.008l1.533-4.008H27.978z"/>
	<path fill="#1E1E1C" d="M31.156,32.347h0.962v5.361h-0.962V32.347z"/>
	<path fill="#1E1E1C" d="M39.869,37.18c-0.455,0.376-1.03,0.599-1.658,0.599c-1.467,0-2.677-1.212-2.677-2.751
		c0-1.54,1.212-2.751,2.677-2.751c0.63,0,1.205,0.223,1.658,0.604l-0.663,0.688c-0.288-0.205-0.637-0.318-0.995-0.318
		c-0.951,0-1.709,0.792-1.709,1.777c0,0.986,0.758,1.783,1.709,1.783c0.358,0,0.707-0.118,0.992-0.324L39.869,37.18z"/>
	<path fill="#1E1E1C" d="M46.087,32.347v0.922h-2.069v1.242h1.998v0.922h-1.998v1.351h2.141v0.923h-3.102v-5.359H46.087
		L46.087,32.347z"/>
</g>
</svg>
